<svg width="156" height="80" viewBox="0 0 156 80" fill="none" xmlns="http://www.w3.org/2000/svg">
<mask id="mask0_363_491" style="mask-type:alpha" maskUnits="userSpaceOnUse" x="14" y="15" width="44" height="53">
<path fill-rule="evenodd" clip-rule="evenodd" d="M57.8419 32.0788C57.8419 29.8495 57.405 27.6421 56.5562 25.5826C55.7073 23.5232 54.4631 21.6519 52.8947 20.0758C51.3262 18.4996 49.4642 17.2495 47.415 16.3967C45.3658 15.544 43.1696 15.1053 40.9517 15.1058H14.9673V64.7762H21.6826L27.8814 67.8806L50.6101 64.7762L57.7524 64.7762C57.7524 58.0566 54.7146 53.5287 49.2099 48.9513C45.9232 46.3545 42.246 43.5845 39.0698 41.5232C37.3721 40.4136 35.8524 40.0717 34.5865 39.7869C33.6195 39.5693 32.8007 39.3851 32.1636 38.9175C31.1043 38.1414 29.9476 35.8018 29.9476 35.8018L31.239 34.767H32.5304L33.3427 32.18H30.6775C30.6248 32.07 30.5742 31.9711 30.5258 31.8765C30.4038 31.638 30.2958 31.4269 30.2022 31.134C30.1265 30.7379 30.1355 30.3303 30.2284 29.938C30.6339 28.7831 31.9579 28.8427 32.5152 28.8678C32.5803 28.8707 32.6349 28.8732 32.6764 28.8732C33.178 28.8919 34.3496 29.0119 35.0795 29.0906C35.4971 29.136 35.9196 29.0977 36.3223 28.9782L36.9886 28.7832C37.2962 28.6479 37.6403 28.6202 37.9656 28.7045C38.3212 28.8282 41.4318 30.3466 41.574 30.4516C41.9178 30.7038 42.1921 31.0392 42.3713 31.4264L43.6739 36.9903C43.8141 37.285 44.0581 37.5173 44.3589 37.6427L53.8352 43.0509C54.026 42.8433 54.2138 42.6185 54.399 42.3743C56.6364 39.4135 57.8458 35.7968 57.8419 32.0788Z" fill="#FA002E"/>
</mask>
<g mask="url(#mask0_363_491)">
<rect x="3.60303" y="6.7439" width="66.1199" height="66.2271" fill="#FA002E"/>
<path d="M47.9973 40.9758H41.4542L41.3082 32.1801H30.3107L27.3648 34.767V40.9758H23.2323L21.6826 64.7987L27.8814 67.8806L50.6101 64.7762L47.9973 40.9758ZM29.9476 35.8018L31.239 34.767L38.7291 34.857V40.9758H29.9476V35.8018Z" fill="white"/>
</g>
<path d="M77.6995 37.6155L71.8284 30.7555H70.9973V37.6155H64.8539V16.1348H76.2755C80.883 16.1348 83.9887 19.0219 83.9887 23.3502C84.044 24.9265 83.5649 26.4751 82.6294 27.7437C81.6939 29.0124 80.3571 29.9264 78.8368 30.3368L85.1065 37.6155H77.6995ZM75.109 25.8819C76.8393 25.8819 77.9231 24.9082 77.9231 23.5108C77.9231 22.1135 76.8393 21.2323 75.109 21.2323H70.9827V25.8819H75.109Z" fill="white"/>
<path d="M102.613 29.5333C102.613 34.6308 98.4819 38.0633 93.5536 38.0633C88.6254 38.0633 84.5039 34.6308 84.5039 29.5333C84.5039 24.4358 88.6302 20.979 93.5585 20.979C98.4868 20.979 102.613 24.4066 102.613 29.5333ZM96.8489 29.5333C96.8006 28.8909 96.5664 28.2765 96.1747 27.7655C95.7831 27.2545 95.2511 26.8691 94.644 26.6564C94.037 26.4438 93.3812 26.4132 92.757 26.5684C92.1328 26.7236 91.5674 27.0579 91.1301 27.5302C90.6927 28.0026 90.4025 28.5925 90.2949 29.2276C90.1873 29.8628 90.267 30.5156 90.5242 31.106C90.7815 31.6965 91.2052 32.1989 91.7433 32.5517C92.2814 32.9045 92.9105 33.0924 93.5536 33.0923C94.0043 33.0786 94.4478 32.9752 94.8582 32.7883C95.2687 32.6014 95.6379 32.3346 95.9445 32.0034C96.2511 31.6723 96.489 31.2833 96.6442 30.8593C96.7995 30.4352 96.8691 29.9845 96.8489 29.5333Z" fill="white"/>
<path d="M120.786 31.5344C120.115 35.5413 116.562 38.1023 112.368 38.1023C107.473 38.1023 103.41 34.6406 103.41 29.5431C103.41 24.4456 107.473 20.9547 112.368 20.9547C116.528 20.9547 120.018 23.4864 120.751 27.4301L115.25 28.584C114.9 26.8848 113.792 26.0182 112.368 26.0182C110.424 26.0182 109.17 27.5908 109.17 29.5431C109.17 31.4955 110.448 33.0388 112.368 33.0388C113.777 33.0388 114.9 32.1722 115.313 30.473L120.786 31.5344Z" fill="white"/>
<path d="M133.743 37.6155L129.427 32.2307H128.455V37.6155H122.448V14.533H128.431V26.7778H129.135L133.51 21.4222H140.591L134.195 29.1001L141.199 37.596L133.743 37.6155Z" fill="white"/>
<path d="M86.4243 64.5468H79.8121V55.7675H71.4349V64.5468H64.8539V41.4822H71.4349V50.0837H79.8329V41.4822H86.4243V64.5468Z" fill="white"/>
<path d="M106.54 57.4854H94.3839C94.7948 59.1178 95.8924 60.1354 97.5362 60.1354C98.1517 60.1796 98.7669 60.0462 99.3078 59.751C99.8487 59.4559 100.292 59.0117 100.584 58.472L106.306 59.593C104.871 63.2658 101.625 65.0324 97.5414 65.0324C92.3708 65.0324 88.1208 61.3596 88.1208 55.9564C88.1208 50.5531 92.3655 46.8235 97.5362 46.8235C102.707 46.8235 106.509 50.2225 106.54 56.2766V57.4854ZM94.4515 53.9831H100.345C100.195 53.3572 99.8357 52.8005 99.3252 52.4044C98.8148 52.0083 98.1839 51.7963 97.5362 51.8032C96.854 51.7875 96.185 51.9913 95.6291 52.3842C95.0731 52.777 94.66 53.3379 94.4515 53.9831Z" fill="white"/>
<path d="M121.567 47.1932L121.329 53.787H120.294C116.822 53.787 114.602 55.1878 114.602 59.3173V64.5467H108.237V47.2866H114.612V50.7002C115.699 48.625 117.474 47.0687 120.335 47.0687C120.75 47.0551 121.164 47.0969 121.567 47.1932Z" fill="white"/>
<path d="M141.199 55.9461C141.199 61.374 136.781 65.0324 131.504 65.0324C126.227 65.0324 121.809 61.374 121.809 55.9461C121.809 50.5182 126.227 46.8235 131.504 46.8235C136.781 46.8235 141.199 50.4767 141.199 55.9461ZM135.032 55.9461C134.981 55.2611 134.731 54.6057 134.313 54.0603C133.894 53.515 133.325 53.1033 132.675 52.8759C132.025 52.6485 131.322 52.6152 130.654 52.7801C129.985 52.945 129.379 53.3009 128.91 53.8042C128.442 54.3075 128.13 54.9363 128.015 55.6134C127.899 56.2906 127.984 56.9867 128.26 57.6163C128.535 58.2459 128.989 58.7816 129.565 59.1579C130.141 59.5341 130.815 59.7344 131.504 59.7342C131.986 59.7203 132.461 59.6108 132.901 59.4121C133.341 59.2135 133.737 58.9297 134.065 58.5773C134.394 58.2248 134.649 57.8107 134.816 57.359C134.983 56.9073 135.058 56.427 135.037 55.9461H135.032Z" fill="white"/>
</svg>
